<svg xmlns:dc="http://purl.org/dc/elements/1.1/" xmlns:cc="http://creativecommons.org/ns#"
  xmlns:rdf="http://www.w3.org/1999/02/22-rdf-syntax-ns#" xmlns:svg="http://www.w3.org/2000/svg"
  xmlns="http://www.w3.org/2000/svg" xmlns:sodipodi="http://sodipodi.sourceforge.net/DTD/sodipodi-0.dtd"
  xmlns:inkscape="http://www.inkscape.org/namespaces/inkscape" style="" xml:space="preserve" version="1.1"
  viewBox="0 0 64 80" x="0px" y="0px" fill-rule="evenodd" clip-rule="evenodd" stroke-linejoin="round"
  stroke-miterlimit="2">
  <path style=""
    d="m 44,40.99968 c 1.105,0 2,0.895 2,2 v 11 c 0,1.591 -0.632,3.117 -1.757,4.243 -1.126,1.125 -2.652,1.757 -4.243,1.757 H 10 c -1.591,0 -3.117,-0.632 -4.242,-1.757 C 4.633,57.11668 4,55.59068 4,53.99968 v -30 c 0,-1.591 0.633,-3.117 1.758,-4.243 1.125,-1.125 2.651,-1.757 4.242,-1.757 h 11 c 0.53,0 1.039,0.211 1.414,0.586 0.375,0.375 0.586,0.884 0.586,1.414 0,0.53 -0.211,1.039 -0.586,1.414 -0.375,0.375 -0.884,0.586 -1.414,0.586 -3.646,0 -11,0 -11,0 -0.53,0 -1.039,0.211 -1.414,0.586 -0.375,0.375 -0.586,0.884 -0.586,1.414 v 30 c 0,0.53 0.211,1.039 0.586,1.414 0.375,0.375 0.884,0.586 1.414,0.586 h 30 c 0.53,0 1.039,-0.211 1.414,-0.586 0.375,-0.375 0.586,-0.884 0.586,-1.414 v -11 c 0,-1.105 0.895,-2 2,-2 z"
    fill="#000000" />
  <path style=""
    d="m 16.586,34.58568 c 0,0 26.647,-26.647 28.828,-28.829 1.125,-1.125 2.652,-1.757 4.243,-1.757 1.591,0 3.117,0.632 4.243,1.757 l 4.343,4.343 c 1.125,1.126 1.757,2.652 1.757,4.243 0,1.591 -0.632,3.118 -1.757,4.243 l -28.829,28.828 c -0.375,0.375 -0.884,0.586 -1.414,0.586 H 18 c -1.105,0 -2,-0.895 -2,-2 v -10 c 0,-0.53 0.211,-1.039 0.586,-1.414 z m 3.414,2.242 v 7.172 h 7.172 l 22,-22 -7.172,-7.172 z m 32,-17.656 3.414,-3.415 c 0.375,-0.375 0.586,-0.883 0.586,-1.414 0,-0.53 -0.211,-1.039 -0.586,-1.414 l -4.343,-4.343 c -0.375,-0.375 -0.884,-0.586 -1.414,-0.586 -0.531,0 -1.039,0.211 -1.414,0.586 l -3.415,3.414 z"
    fill="#000000" />
</svg>